nColumns=28
nRows=73
DataType=double
version=3
OpenSimVersion=4.1
endheader
time	ground_force_1_vx	ground_force_1_vy	ground_force_1_vz	ground_force_1_px	ground_force_1_py	ground_force_1_pz	ground_force_1_mx	ground_force_1_my	ground_force_1_mz	ground_force_2_vx	ground_force_2_vy	ground_force_2_vz	ground_force_2_px	ground_force_2_py	ground_force_2_pz	ground_force_2_mx	ground_force_2_my	ground_force_2_mz	ground_force_3_vx	ground_force_3_vy	ground_force_3_vz	ground_force_3_px	ground_force_3_py	ground_force_3_pz	ground_force_3_mx	ground_force_3_my	ground_force_3_mz
0	0.513945	289.488	-43.0018	-0.21004	0.006	-0.455218	0	-0.980876	0	-0.962647	325.119	42.9383	-0.205432	0.006	-0.901027	0	1.40596	0	0	0	0	0	0	0	0	0	0
0.01	0.385316	289.446	-43.0103	-0.2096	0.006	-0.455115	0	-0.980875	0	-1.06739	325.042	42.889	-0.205203	0.006	-0.901054	0	1.38622	0	0	0	0	0	0	0	0	0	0
0.02	0.243638	289.418	-43.023	-0.209102	0.006	-0.455005	0	-0.981704	0	-1.19703	324.976	42.8478	-0.204901	0.006	-0.901093	0	1.36922	0	0	0	0	0	0	0	0	0	0
0.03	0.0902556	289.408	-43.0402	-0.20855	0.006	-0.45489	0	-0.98338	0	-1.35312	324.926	42.8175	-0.204521	0.006	-0.901145	0	1.35575	0	0	0	0	0	0	0	0	0	0
0.04	-0.0740949	289.421	-43.0624	-0.207953	0.006	-0.454773	0	-0.985832	0	-1.53636	324.896	42.8001	-0.204062	0.006	-0.90121	0	1.34609	0	0	0	0	0	0	0	0	0	0
0.05	-0.249237	289.462	-43.0902	-0.207316	0.006	-0.454656	0	-0.988975	0	-1.74698	324.887	42.7967	-0.203526	0.006	-0.90129	0	1.34006	0	0	0	0	0	0	0	0	0	0
0.06	-0.435661	289.537	-43.1241	-0.206648	0.006	-0.45454	0	-0.992657	0	-1.98481	324.904	42.8078	-0.202915	0.006	-0.901384	0	1.33707	0	0	0	0	0	0	0	0	0	0
0.07	-0.634294	289.653	-43.1647	-0.205957	0.006	-0.454428	0	-0.996654	0	-2.24928	324.949	42.8339	-0.202235	0.006	-0.901491	0	1.33634	0	0	0	0	0	0	0	0	0	0
0.08	-0.84623	289.819	-43.2126	-0.20525	0.006	-0.45432	0	-1.00078	0	-2.53964	325.023	42.8757	-0.20149	0.006	-0.901611	0	1.337	0	0	0	0	0	0	0	0	0	0
0.09	-1.07294	290.042	-43.2684	-0.204536	0.006	-0.454218	0	-1.00495	0	-2.85552	325.129	42.9336	-0.200687	0.006	-0.901741	0	1.33802	0	0	0	0	0	0	0	0	0	0
0.1	-1.31715	290.328	-43.3323	-0.203821	0.006	-0.454124	0	-1.00907	0	-3.19724	325.267	43.0084	-0.199831	0.006	-0.901881	0	1.33838	0	0	0	0	0	0	0	0	0	0
0.11	-1.58243	290.684	-43.405	-0.203114	0.006	-0.454037	0	-1.01301	0	-3.56604	325.438	43.1008	-0.19893	0.006	-0.902029	0	1.33725	0	0	0	0	0	0	0	0	0	0
0.12	-1.8729	291.112	-43.4872	-0.20242	0.006	-0.453958	0	-1.01672	0	-3.96391	325.642	43.2112	-0.197989	0.006	-0.902186	0	1.33388	0	0	0	0	0	0	0	0	0	0
0.13	-2.19366	291.61	-43.5796	-0.201743	0.006	-0.453886	0	-1.02008	0	-4.39364	325.875	43.3396	-0.197014	0.006	-0.90235	0	1.3277	0	0	0	0	0	0	0	0	0	0
0.14	-2.55091	292.17	-43.6833	-0.201085	0.006	-0.453819	0	-1.02285	0	-4.859	326.13	43.4859	-0.196014	0.006	-0.902522	0	1.31832	0	0	0	0	0	0	0	0	0	0
0.15	-2.95186	292.78	-43.7988	-0.200446	0.006	-0.453756	0	-1.02473	0	-5.36513	326.395	43.6492	-0.194996	0.006	-0.9027	0	1.3055	0	0	0	0	0	0	0	0	0	0
0.16	-3.40473	293.418	-43.9266	-0.199824	0.006	-0.453694	0	-1.02529	0	-5.9194	326.66	43.8284	-0.193967	0.006	-0.902883	0	1.28898	0	0	0	0	0	0	0	0	0	0
0.17	-3.9184	294.055	-44.0664	-0.199216	0.006	-0.453631	0	-1.02388	0	-6.53107	326.914	44.022	-0.192936	0.006	-0.903069	0	1.26852	0	0	0	0	0	0	0	0	0	0
0.18	-4.50212	294.657	-44.2173	-0.198619	0.006	-0.453564	0	-1.01978	0	-7.21056	327.147	44.2285	-0.191908	0.006	-0.903256	0	1.24406	0	0	0	0	0	0	0	0	0	0
0.19	-5.16483	295.184	-44.3778	-0.198029	0.006	-0.453492	0	-1.01218	0	-7.96899	327.348	44.4456	-0.19089	0.006	-0.903442	0	1.21571	0	0	0	0	0	0	0	0	0	0
0.2	-5.91448	295.594	-44.5461	-0.197444	0.006	-0.453413	0	-1.00032	0	-8.8176	327.506	44.6704	-0.189883	0.006	-0.903623	0	1.18373	0	0	0	0	0	0	0	0	0	0
0.21	-6.75732	295.847	-44.7198	-0.196864	0.006	-0.453325	0	-0.983529	0	-9.76689	327.61	44.9	-0.188892	0.006	-0.903799	0	1.14839	0	0	0	0	0	0	0	0	0	0
0.22	-7.6975	295.907	-44.8957	-0.19629	0.006	-0.453229	0	-0.961209	0	-10.8255	327.653	45.1313	-0.18792	0.006	-0.903967	0	1.11005	0	0	0	0	0	0	0	0	0	0
0.23	-8.73612	295.739	-45.0696	-0.195728	0.006	-0.453124	0	-0.932898	0	-11.9987	327.628	45.3612	-0.186973	0.006	-0.904126	0	1.06922	0	0	0	0	0	0	0	0	0	0
0.24	-9.87006	295.312	-45.2358	-0.195188	0.006	-0.453012	0	-0.898345	0	-13.2875	327.538	45.587	-0.186062	0.006	-0.904275	0	1.02658	0	0	0	0	0	0	0	0	0	0
0.25	-11.0914	294.597	-45.3868	-0.194682	0.006	-0.452895	0	-0.857456	0	-14.6868	327.392	45.806	-0.185198	0.006	-0.90441	0	0.982959	0	0	0	0	0	0	0	0	0	0
0.26	-12.3868	293.561	-45.5124	-0.194228	0.006	-0.452775	0	-0.810363	0	-16.1859	327.203	46.0158	-0.184403	0.006	-0.904529	0	0.939263	0	0	0	0	0	0	0	0	0	0
0.27	-13.7369	292.169	-45.6003	-0.193845	0.006	-0.452655	0	-0.757422	0	-17.7674	326.978	46.2124	-0.183696	0.006	-0.904626	0	0.896426	0	0	0	0	0	0	0	0	0	0
0.28	-15.1164	290.381	-45.6356	-0.193559	0.006	-0.452541	0	-0.699086	0	-19.408	326.716	46.3906	-0.183101	0.006	-0.904698	0	0.855326	0	0	0	0	0	0	0	0	0	0
0.29	-16.4939	288.152	-45.6004	-0.193397	0.006	-0.452439	0	-0.635918	0	-21.0785	326.399	46.5431	-0.182645	0.006	-0.90474	0	0.816448	0	0	0	0	0	0	0	0	0	0
0.3	-17.8331	285.43	-45.4753	-0.193391	0.006	-0.452354	0	-0.568548	0	-22.7441	325.988	46.6606	-0.182353	0.006	-0.904749	0	0.779912	0	0	0	0	0	0	0	0	0	0
0.31	-19.094	282.163	-45.2391	-0.193577	0.006	-0.452294	0	-0.497637	0	-24.3648	325.425	46.7317	-0.18225	0.006	-0.904724	0	0.745536	0	0	0	0	0	0	0	0	0	0
0.32	-20.2333	278.302	-44.87	-0.193994	0.006	-0.452265	0	-0.423869	0	-25.8955	324.626	46.7422	-0.182361	0.006	-0.904664	0	0.712794	0	0	0	0	0	0	0	0	0	0
0.33	-21.206	273.803	-44.3461	-0.194689	0.006	-0.452275	0	-0.347998	0	-27.2872	323.484	46.6753	-0.182707	0.006	-0.90457	0	0.680767	0	0	0	0	0	0	0	0	0	0
0.34	-21.967	268.635	-43.6462	-0.19571	0.006	-0.452334	0	-0.270831	0	-28.4889	321.872	46.5117	-0.183311	0.006	-0.904443	0	0.648178	0	0	0	0	0	0	0	0	0	0
0.35	-22.4735	262.792	-42.7518	-0.197114	0.006	-0.45245	0	-0.19331	0	-29.449	319.657	46.2315	-0.184198	0.006	-0.904283	0	0.613475	0	0	0	0	0	0	0	0	0	0
0.36	-22.6889	256.298	-41.6508	-0.198958	0.006	-0.452635	0	-0.116382	0	-30.1175	316.709	45.8158	-0.185393	0.006	-0.904088	0	0.575033	0	0	0	0	0	0	0	0	0	0
0.37	-22.5875	249.22	-40.3408	-0.201304	0.006	-0.452898	0	-0.04087	0	-30.4492	312.924	45.2491	-0.186926	0.006	-0.903858	0	0.531453	0	0	0	0	0	0	0	0	0	0
0.38	-22.1565	241.677	-38.8341	-0.204212	0.006	-0.453247	0	0.032584	0	-30.4062	308.25	44.5242	-0.188831	0.006	-0.903591	0	0.481862	0	0	0	0	0	0	0	0	0	0
0.39	-21.3943	233.846	-37.1606	-0.207742	0.006	-0.453689	0	0.103649	0	-29.9573	302.707	43.6452	-0.191147	0.006	-0.903284	0	0.425989	0	0	0	0	0	0	0	0	0	0
0.4	-20.3057	225.964	-35.3686	-0.21195	0.006	-0.454226	0	0.172229	0	-29.0779	296.402	42.6319	-0.193919	0.006	-0.902934	0	0.364275	0	0	0	0	0	0	0	0	0	0
0.41	-18.8989	218.306	-33.5218	-0.216869	0.006	-0.454855	0	0.238402	0	-27.7481	289.524	41.5205	-0.197196	0.006	-0.902539	0	0.297772	0	0	0	0	0	0	0	0	0	0
0.42	-17.1832	211.158	-31.6931	-0.222507	0.006	-0.455566	0	0.302137	0	-25.9532	282.331	40.3622	-0.201029	0.006	-0.902095	0	0.227939	0	0	0	0	0	0	0	0	0	0
0.43	-15.1675	204.788	-29.9582	-0.228824	0.006	-0.456341	0	0.363003	0	-23.6838	275.122	39.2199	-0.205456	0.006	-0.901602	0	0.156435	0	0	0	0	0	0	0	0	0	0
0.44	-12.8603	199.418	-28.3899	-0.235731	0.006	-0.457155	0	0.419803	0	-20.9371	268.212	38.1638	-0.210495	0.006	-0.901063	0	0.085144	0	0	0	0	0	0	0	0	0	0
0.45	-10.2723	195.216	-27.054	-0.243086	0.006	-0.457976	0	0.470409	0	-17.7177	261.899	37.2644	-0.216126	0.006	-0.900485	0	0.016523	0	0	0	0	0	0	0	0	0	0
0.46	-7.41848	192.29	-26.0055	-0.250703	0.006	-0.458769	0	0.511746	0	-14.0377	256.433	36.5833	-0.22229	0.006	-0.899876	0	-0.046232	0	0	0	0	0	0	0	0	0	0
0.47	-4.32101	190.683	-25.2869	-0.258365	0.006	-0.4595	0	0.539948	0	-9.92128	251.999	36.1668	-0.22888	0.006	-0.899249	0	-0.099299	0	0	0	0	0	0	0	0	0	0
0.48	-1.01447	190.381	-24.9283	-0.265853	0.006	-0.460136	0	0.550671	0	-5.4133	248.703	36.0415	-0.235753	0.006	-0.898619	0	-0.138437	0	0	0	0	0	0	0	0	0	0
0.49	2.44624	191.322	-24.9502	-0.272967	0.006	-0.460651	0	0.539597	0	-0.592254	246.576	36.213	-0.242738	0.006	-0.897997	0	-0.159172	0	0	0	0	0	0	0	0	0	0
0.5	5.9803	193.402	-25.3614	-0.279546	0.006	-0.461029	0	0.502956	0	4.42362	245.574	36.6624	-0.249652	0.006	-0.897391	0	-0.157279	0	0	0	0	0	0	0	0	0	0
0.51	9.48445	196.48	-26.1527	-0.285475	0.006	-0.461264	0	0.438182	0	9.48446	245.585	37.343	-0.256327	0.006	-0.896804	0	-0.12975	0	0	0	0	0	0	0	0	0	0
0.52	12.8446	200.385	-27.2909	-0.290696	0.006	-0.461368	0	0.344736	0	14.424	246.457	38.184	-0.262615	0.006	-0.896232	0	-0.075739	0	0	0	0	0	0	0	0	0	0
0.53	15.9519	204.934	-28.7197	-0.295201	0.006	-0.461362	0	0.224468	0	19.0755	248.047	39.1041	-0.268406	0.006	-0.895664	0	0.003001	0	0	0	0	0	0	0	0	0	0
0.54	18.7139	209.954	-30.3648	-0.29902	0.006	-0.461278	0	0.081366	0	23.289	250.248	40.0254	-0.273619	0.006	-0.895092	0	0.102388	0	0	0	0	0	0	0	0	0	0
0.55	21.0607	215.308	-32.143	-0.302204	0.006	-0.461145	0	-0.079048	0	26.9477	252.99	40.8796	-0.278205	0.006	-0.894507	0	0.216802	0	0	0	0	0	0	0	0	0	0
0.56	22.9492	220.892	-33.9683	-0.304817	0.006	-0.460996	0	-0.250599	0	29.9819	256.202	41.6064	-0.282148	0.006	-0.893905	0	0.340204	0	0	0	0	0	0	0	0	0	0
0.57	24.3709	226.631	-35.7577	-0.306926	0.006	-0.460854	0	-0.427354	0	32.3733	259.787	42.1521	-0.285463	0.006	-0.893281	0	0.466879	0	0	0	0	0	0	0	0	0	0
0.58	25.3537	232.451	-37.4329	-0.308599	0.006	-0.460742	0	-0.604048	0	34.1444	263.617	42.4753	-0.288193	0.006	-0.892638	0	0.591919	0	0	0	0	0	0	0	0	0	0
0.59	25.9501	238.265	-38.9246	-0.309902	0.006	-0.460675	0	-0.77615	0	35.3417	267.56	42.5578	-0.290395	0.006	-0.891978	0	0.711832	0	0	0	0	0	0	0	0	0	0
0.6	26.2197	243.978	-40.1799	-0.310898	0.006	-0.460663	0	-0.940255	0	36.0178	271.523	42.4114	-0.292135	0.006	-0.891312	0	0.824859	0	0	0	0	0	0	0	0	0	0
0.61	26.2165	249.502	-41.1691	-0.311643	0.006	-0.460709	0	-1.09449	0	36.2214	275.492	42.0767	-0.293474	0.006	-0.89065	0	0.930552	0	0	0	0	0	0	0	0	0	0
0.62	25.9878	254.779	-41.8881	-0.312182	0.006	-0.460811	0	-1.23839	0	35.9953	279.545	41.6149	-0.294464	0.006	-0.890008	0	1.02887	0	0	0	0	0	0	0	0	0	0
0.63	25.5774	259.779	-42.3542	-0.312554	0.006	-0.460961	0	-1.37237	0	35.3795	283.835	41.0948	-0.295145	0.006	-0.8894	0	1.11979	0	0	0	0	0	0	0	0	0	0
0.64	25.0258	264.484	-42.5967	-0.312788	0.006	-0.461149	0	-1.49734	0	34.4169	288.535	40.5807	-0.295555	0.006	-0.888842	0	1.20332	0	0	0	0	0	0	0	0	0	0
0.65	24.367	268.868	-42.6481	-0.312908	0.006	-0.461364	0	-1.6143	0	33.1631	293.766	40.1156	-0.29573	0.006	-0.888342	0	1.27945	0	0	0	0	0	0	0	0	0	0
0.66	23.628	272.88	-42.5356	-0.312935	0.006	-0.461596	0	-1.72378	0	31.6984	299.52	39.7063	-0.295711	0.006	-0.887904	0	1.34813	0	0	0	0	0	0	0	0	0	0
0.67	22.8329	276.447	-42.2758	-0.312888	0.006	-0.461838	0	-1.8255	0	30.1348	305.623	39.3222	-0.295546	0.006	-0.887524	0	1.4096	0	0	0	0	0	0	0	0	0	0
0.68	22.0096	279.494	-41.8741	-0.312781	0.006	-0.462085	0	-1.91823	0	28.5976	311.753	38.9206	-0.295289	0.006	-0.887196	0	1.46525	0	0	0	0	0	0	0	0	0	0
0.69	21.1904	281.96	-41.3279	-0.312627	0.006	-0.462337	0	-2.00011	0	27.1897	317.521	38.4776	-0.294984	0.006	-0.886915	0	1.51802	0	0	0	0	0	0	0	0	0	0
0.7	20.4075	283.807	-40.6334	-0.312434	0.006	-0.462594	0	-2.06909	0	25.9669	322.566	37.9967	-0.294664	0.006	-0.88668	0	1.5715	0	0	0	0	0	0	0	0	0	0
0.71	19.6862	285.031	-39.792	-0.312203	0.006	-0.462855	0	-2.12328	0	24.9365	326.625	37.4924	-0.294346	0.006	-0.886494	0	1.6285	0	0	0	0	0	0	0	0	0	0
0.72	19.0404	285.666	-38.815	-0.31193	0.006	-0.463114	0	-2.16138	0	24.0739	329.559	36.9755	-0.294029	0.006	-0.886362	0	1.69025	0	0	0	0	0	0	0	0	0	0
